<?xml version="1.0" encoding="UTF-8"?>
<svg id="Layer_1" data-name="Layer 1" xmlns="http://www.w3.org/2000/svg" viewBox="0 0 214.89 59.56">
  <path d="M1.54,22.72c0-2.57.43-4.91,1.29-7s2.07-3.87,3.61-5.34c1.54-1.47,3.38-2.6,5.5-3.38,2.12-.79,4.44-1.18,6.95-1.18s4.83.39,6.95,1.18c2.12.79,3.95,1.92,5.5,3.38,1.54,1.47,2.75,3.25,3.61,5.34s1.29,4.42,1.29,7-.43,4.91-1.29,7-2.07,3.87-3.61,5.34c-1.54,1.47-3.38,2.6-5.5,3.38-2.12.79-4.44,1.18-6.95,1.18s-4.83-.39-6.95-1.18c-2.12-.79-3.95-1.92-5.5-3.38-1.54-1.47-2.75-3.25-3.61-5.34s-1.29-4.42-1.29-7ZM8.9,22.72c0,1.51.23,2.9.7,4.16.47,1.26,1.14,2.35,2.02,3.27.88.92,1.93,1.64,3.16,2.16,1.23.52,2.6.77,4.11.77s2.88-.26,4.11-.77c1.23-.51,2.28-1.23,3.16-2.16.88-.92,1.55-2.01,2.02-3.27.47-1.26.7-2.64.7-4.16s-.23-2.86-.7-4.13c-.47-1.27-1.14-2.37-2.02-3.29-.88-.92-1.93-1.64-3.16-2.16-1.23-.51-2.6-.77-4.11-.77s-2.88.26-4.11.77c-1.23.52-2.28,1.23-3.16,2.16-.88.92-1.55,2.02-2.02,3.29-.47,1.27-.7,2.65-.7,4.13Z" style="fill: #1a9dcf; stroke-width: 0px;"/>
  <path d="M55.65,14.49c-.58-.73-1.36-1.26-2.34-1.61-.98-.35-1.92-.52-2.79-.52-.52,0-1.04.06-1.59.18-.55.12-1.06.31-1.54.57-.48.26-.88.6-1.18,1.02-.3.42-.45.94-.45,1.54,0,.97.36,1.71,1.09,2.23.73.52,1.64.95,2.75,1.32,1.11.36,2.29.73,3.57,1.09,1.27.36,2.46.88,3.57,1.54,1.1.67,2.02,1.56,2.75,2.68.73,1.12,1.09,2.62,1.09,4.5s-.33,3.35-1,4.68c-.67,1.33-1.57,2.44-2.7,3.32-1.14.88-2.45,1.53-3.95,1.95-1.5.42-3.08.64-4.75.64-2.09,0-4.03-.32-5.81-.95-1.79-.64-3.45-1.67-5-3.09l5.04-5.54c.73.97,1.64,1.72,2.75,2.25,1.1.53,2.25.8,3.43.8.58,0,1.16-.07,1.75-.2.59-.14,1.12-.34,1.59-.61.47-.27.85-.62,1.14-1.04.29-.42.43-.92.43-1.5,0-.97-.37-1.73-1.11-2.29-.74-.56-1.67-1.04-2.79-1.43-1.12-.39-2.33-.79-3.63-1.18-1.3-.39-2.51-.92-3.63-1.59-1.12-.67-2.05-1.54-2.79-2.63s-1.11-2.53-1.11-4.32.34-3.24,1.02-4.54c.68-1.3,1.59-2.39,2.73-3.27,1.14-.88,2.45-1.54,3.93-1.98,1.48-.44,3.01-.66,4.59-.66,1.82,0,3.57.26,5.27.77,1.7.52,3.23,1.38,4.59,2.59l-4.86,5.32Z" style="fill: #1a9dcf; stroke-width: 0px;"/>
  <path d="M75.1,6.63h5.86l13.99,32.17h-8l-2.77-6.81h-12.49l-2.68,6.81h-7.81l13.9-32.17ZM77.82,15.99l-3.91,10h7.86l-3.95-10Z" style="fill: #1a9dcf; stroke-width: 0px;"/>
  <path d="M130.02,14.99c-.7-.85-1.55-1.5-2.57-1.95-1.02-.45-2.19-.68-3.52-.68s-2.57.26-3.7.77c-1.14.52-2.12,1.23-2.95,2.16-.83.92-1.48,2.02-1.95,3.29-.47,1.27-.7,2.65-.7,4.13s.23,2.9.7,4.16c.47,1.26,1.11,2.35,1.93,3.27.82.92,1.78,1.64,2.88,2.16,1.11.52,2.29.77,3.57.77,1.45,0,2.74-.3,3.86-.91,1.12-.61,2.04-1.45,2.77-2.54l5.91,4.41c-1.36,1.91-3.09,3.32-5.18,4.23-2.09.91-4.24,1.36-6.45,1.36-2.51,0-4.83-.39-6.95-1.18-2.12-.79-3.95-1.92-5.5-3.38-1.54-1.47-2.75-3.25-3.61-5.34s-1.29-4.42-1.29-7,.43-4.91,1.29-7,2.07-3.87,3.61-5.34c1.54-1.47,3.38-2.6,5.5-3.38,2.12-.79,4.44-1.18,6.95-1.18.91,0,1.85.08,2.84.25.98.17,1.95.43,2.91.8.95.36,1.87.85,2.75,1.45.88.61,1.67,1.35,2.36,2.23l-5.45,4.45Z" style="fill: #3a53a4; stroke-width: 0px;"/>
  <path d="M137.06,22.72c0-2.57.43-4.91,1.29-7s2.07-3.87,3.61-5.34c1.54-1.47,3.38-2.6,5.5-3.38,2.12-.79,4.44-1.18,6.95-1.18s4.83.39,6.95,1.18c2.12.79,3.95,1.92,5.5,3.38,1.54,1.47,2.75,3.25,3.61,5.34s1.29,4.42,1.29,7-.43,4.91-1.29,7-2.07,3.87-3.61,5.34c-1.54,1.47-3.38,2.6-5.5,3.38-2.12.79-4.44,1.18-6.95,1.18s-4.83-.39-6.95-1.18c-2.12-.79-3.95-1.92-5.5-3.38-1.54-1.47-2.75-3.25-3.61-5.34s-1.29-4.42-1.29-7ZM144.42,22.72c0,1.51.23,2.9.7,4.16.47,1.26,1.14,2.35,2.02,3.27.88.92,1.93,1.64,3.16,2.16,1.23.52,2.6.77,4.11.77s2.88-.26,4.11-.77c1.23-.51,2.28-1.23,3.16-2.16.88-.92,1.55-2.01,2.02-3.27.47-1.26.7-2.64.7-4.16s-.23-2.86-.7-4.13c-.47-1.27-1.14-2.37-2.02-3.29-.88-.92-1.93-1.64-3.16-2.16-1.23-.51-2.6-.77-4.11-.77s-2.88.26-4.11.77c-1.23.52-2.28,1.23-3.16,2.16-.88.92-1.55,2.02-2.02,3.29-.47,1.27-.7,2.65-.7,4.13Z" style="fill: #3a53a4; stroke-width: 0px;"/>
  <path d="M175.27,6.63h10.72l7.41,20.99h.09l7.45-20.99h10.68v32.17h-7.09V14.13h-.09l-8.45,24.67h-5.41l-8.13-24.67h-.09v24.67h-7.09V6.63Z" style="fill: #3a53a4; stroke-width: 0px;"/>
</svg>