<?xml version="1.0" encoding="UTF-8"?>
<svg id="Layer_1" data-name="Layer 1" xmlns="http://www.w3.org/2000/svg" viewBox="0 0 481 371">
  <path d="M480.92,277.21c0,30.06-.05,60.12.08,90.18.01,2.89-.48,3.61-3.54,3.61-157.91-.1-315.81-.1-473.72,0-3.27,0-3.75-.92-3.75-3.89C.08,246.04.08,124.96,0,3.89,0,.92.48,0,3.75,0c157.91.1,315.81.1,473.72,0,3.06,0,3.55.72,3.54,3.61-.13,29.73-.08,59.46-.08,89.19-.35.03-.7.05-1.06.08-48.81-28.21-97.62-56.42-146.43-84.63-4.16-2.41-8.32-6.77-12.45-6.74-4.32.03-8.65,4.21-12.91,6.68-22.22,12.9-44.41,25.83-66.61,38.75-.59-.08-1.18-.16-1.77-.24-.21-.24-.38-.57-.65-.72-25.44-14.71-50.92-29.35-76.28-44.19-2.08-1.22-2.99-.13-4.3.63-35.67,20.57-71.34,41.13-106.98,61.75-16.51,9.56-32.94,19.25-49.4,28.89-1.49,1.56-.7,3.48-.7,5.21-.05,57.64.02,115.29-.15,172.93-.01,4.57,1.4,7.03,5.33,9.29,36.18,20.69,72.2,41.68,108.37,62.4,15.25,8.74,30.18,18.04,45.85,26.03,2.06.33,3.38-1.2,4.89-2.07,24.99-14.37,49.95-28.8,74.91-43.22.63.15,1.27.29,1.91.44,10.85,6.38,21.63,12.88,32.57,19.1,15.12,8.59,29.85,17.86,45.36,25.76,2.38.15,3.94-1.57,5.76-2.61,25.47-14.64,50.93-29.31,76.36-44.03,25.85-14.96,51.67-29.97,77.5-44.97l.45.06.43-.14Z" style="fill: #fdfefe; stroke-width: 0px;"/>
  <path d="M480.92,277.21l-.43.14s-.45-.06-.45-.06c-.04-43.1-.07-86.19-.12-129.29-.02-18.06-.1-36.13-.15-54.19.07-.31.1-.62.09-.93l1.06-.08v184.41Z" style="fill: #92a5ee; stroke-width: 0px;"/>
  <path d="M160.79,368.9c-15.67-7.99-30.6-17.3-45.85-26.03-36.17-20.72-72.18-41.7-108.37-62.4-3.94-2.25-5.35-4.71-5.33-9.29.17-57.64.11-115.29.15-172.93,0-1.73-.79-3.65.7-5.21.33.37.58.87.99,1.1,22.24,12.84,44.49,25.65,66.73,38.49,22.53,13,44.99,26.12,67.6,38.97,7.75,4.4,15.1,9.55,23.41,12.95-.01,61.45-.02,122.9-.04,184.36Z" style="fill: #199dce; stroke-width: 0px;"/>
  <path d="M479.78,93.81c.05,18.06.12,36.13.15,54.19.05,43.1.08,86.19.12,129.29-25.83,14.99-51.65,30.01-77.5,44.97-25.43,14.72-50.88,29.39-76.36,44.03-1.81,1.04-3.38,2.77-5.76,2.61,0-61.45.02-122.91.02-184.36,1.61.16,2.77-.76,4.07-1.52,15.74-9.12,31.53-18.17,47.29-27.26,22.64-13.05,45.25-26.15,67.91-39.17,13.32-7.65,26.7-15.19,40.06-22.78Z" style="fill: #0f3ada; stroke-width: 0px;"/>
  <path d="M479.78,93.81c-13.35,7.59-26.74,15.12-40.06,22.78-22.66,13.02-45.27,26.12-67.91,39.17-15.76,9.09-31.55,18.14-47.29,27.26-1.31.76-2.46,1.68-4.08,1.52-10.69-4.83-20.42-11.39-30.63-17.08-15.84-8.84-31.54-17.91-47.3-26.89-.37-.34-.74-.68-1.11-1.02.87-.73,1.66-1.61,2.63-2.17,12.44-7.25,24.91-14.45,37.38-21.66,11.46-6.63,22.91-13.29,34.39-19.89,2.99-1.72,4.74-2.81.21-5.33-14.61-8.12-29.05-16.56-43.43-25.08-10.38-6.15-21.18-11.58-31.12-18.47,22.2-12.92,44.4-25.85,66.61-38.75,4.26-2.47,8.59-6.65,12.91-6.68,4.13-.03,8.29,4.33,12.45,6.74,48.81,28.21,97.62,56.42,146.43,84.63.01.32-.02.63-.09.93Z" style="fill: #1074e5; stroke-width: 0px;"/>
  <path d="M160.83,184.54c-8.31-3.4-15.66-8.54-23.41-12.95-22.62-12.85-45.07-25.97-67.6-38.97-22.24-12.83-44.5-25.64-66.73-38.49-.41-.23-.66-.73-.99-1.1,16.46-9.63,32.89-19.33,49.4-28.89C87.13,43.53,122.8,22.97,158.47,2.4c1.31-.75,2.22-1.84,4.3-.63,25.36,14.84,50.84,29.48,76.28,44.19.27.15.43.48.64.72-4.1,4.54-9.87,6.53-14.94,9.51-19.84,11.65-39.86,23.02-59.8,34.51-2.1,1.21-4.58,2.18-.52,4.5,24.01,13.71,47.9,27.63,71.93,41.31,3.9,2.22,3.72,3.18-.03,5.31-18.7,10.65-37.2,21.65-55.94,32.24-6.43,3.63-12.29,8.39-19.56,10.47Z" style="fill: #1074e5; stroke-width: 0px;"/>
  <path d="M160.83,184.54c7.27-2.08,13.13-6.84,19.56-10.47,18.74-10.59,37.24-21.58,55.94-32.24,3.75-2.14,3.93-3.1.03-5.31-24.03-13.68-47.92-27.6-71.93-41.31-4.06-2.32-1.57-3.29.52-4.5,19.94-11.49,39.95-22.86,59.8-34.51,5.08-2.98,10.84-4.97,14.94-9.51.59.08,1.18.16,1.77.25,9.94,6.89,20.74,12.33,31.12,18.47,14.38,8.52,28.82,16.96,43.43,25.08,4.54,2.52,2.78,3.61-.21,5.33-11.48,6.61-22.93,13.26-34.39,19.89-12.46,7.21-24.93,14.42-37.38,21.66-.97.56-1.76,1.44-2.63,2.17-1.4,1.77-.77,3.84-.77,5.77-.04,59.43-.04,118.86-.05,178.29-24.96,14.42-49.92,28.85-74.91,43.22-1.52.87-2.84,2.4-4.89,2.07.01-61.45.02-122.9.04-184.36Z" style="fill: #0f3ada; stroke-width: 0px;"/>
  <path d="M242.52,140.57c15.76,8.97,31.46,18.05,47.3,26.89,10.21,5.69,19.94,12.25,30.63,17.08,0,61.45-.01,122.91-.02,184.36-15.51-7.89-30.24-17.17-45.36-25.76-10.94-6.22-21.72-12.72-32.57-19.1,0-61.16.01-122.32.02-183.48Z" style="fill: #189dce; stroke-width: 0px;"/>
  <path d="M242.52,140.57c0,61.16-.01,122.32-.02,183.48-.64-.15-1.27-.29-1.91-.44,0-59.43,0-118.86.05-178.29,0-1.93-.63-4,.77-5.77.37.34.74.68,1.11,1.02Z" style="fill: #199dce; stroke-width: 0px;"/>
</svg>